<mxfile host="app.diagrams.net" agent="Mozilla/5.0 (Windows NT 10.0; Win64; x64) AppleWebKit/537.36 (KHTML, like Gecko) Chrome/130.0.0.0 Safari/537.36" version="24.8.6">
  <diagram name="Страница — 1" id="AnLl0C3dqFWA3HoUq7aA">
    <mxGraphModel dx="2261" dy="780" grid="1" gridSize="10" guides="1" tooltips="1" connect="1" arrows="1" fold="1" page="1" pageScale="1" pageWidth="827" pageHeight="1169" math="0" shadow="0">
      <root>
        <mxCell id="0" />
        <mxCell id="1" parent="0" />
        <mxCell id="kRFx1FYYjwCrAYGBNGrn-1" value="12. Система доставки еды / Гунин" style="rounded=0;whiteSpace=wrap;html=1;" vertex="1" parent="1">
          <mxGeometry x="680" width="147" height="80" as="geometry" />
        </mxCell>
        <mxCell id="kRFx1FYYjwCrAYGBNGrn-2" value="Пользователь&lt;div&gt;&lt;br&gt;&lt;/div&gt;" style="shape=umlActor;verticalLabelPosition=bottom;verticalAlign=top;html=1;outlineConnect=0;" vertex="1" parent="1">
          <mxGeometry x="40" y="200" width="40" height="80" as="geometry" />
        </mxCell>
        <mxCell id="kRFx1FYYjwCrAYGBNGrn-16" value="" style="endArrow=none;html=1;rounded=0;" edge="1" parent="1" source="kRFx1FYYjwCrAYGBNGrn-2" target="kRFx1FYYjwCrAYGBNGrn-17">
          <mxGeometry width="50" height="50" relative="1" as="geometry">
            <mxPoint x="180" y="220" as="sourcePoint" />
            <mxPoint x="160" y="240" as="targetPoint" />
          </mxGeometry>
        </mxCell>
        <mxCell id="kRFx1FYYjwCrAYGBNGrn-17" value="выбор ресторана" style="ellipse;whiteSpace=wrap;html=1;" vertex="1" parent="1">
          <mxGeometry x="100" y="200" width="120" height="80" as="geometry" />
        </mxCell>
        <mxCell id="kRFx1FYYjwCrAYGBNGrn-18" value="Ресторан" style="shape=umlActor;verticalLabelPosition=bottom;verticalAlign=top;html=1;outlineConnect=0;" vertex="1" parent="1">
          <mxGeometry x="760" y="200" width="40" height="80" as="geometry" />
        </mxCell>
        <mxCell id="kRFx1FYYjwCrAYGBNGrn-19" value="" style="endArrow=none;html=1;rounded=0;exitX=1;exitY=0.5;exitDx=0;exitDy=0;" edge="1" parent="1" source="kRFx1FYYjwCrAYGBNGrn-24" target="kRFx1FYYjwCrAYGBNGrn-18">
          <mxGeometry width="50" height="50" relative="1" as="geometry">
            <mxPoint x="740" y="240" as="sourcePoint" />
            <mxPoint x="380" y="200" as="targetPoint" />
          </mxGeometry>
        </mxCell>
        <mxCell id="kRFx1FYYjwCrAYGBNGrn-25" style="edgeStyle=orthogonalEdgeStyle;rounded=0;orthogonalLoop=1;jettySize=auto;html=1;entryX=0.5;entryY=0;entryDx=0;entryDy=0;entryPerimeter=0;" edge="1" parent="1" source="kRFx1FYYjwCrAYGBNGrn-24" target="kRFx1FYYjwCrAYGBNGrn-2">
          <mxGeometry relative="1" as="geometry">
            <mxPoint x="559.3103448275862" y="80" as="targetPoint" />
          </mxGeometry>
        </mxCell>
        <mxCell id="kRFx1FYYjwCrAYGBNGrn-24" value="Показать меню" style="ellipse;whiteSpace=wrap;html=1;" vertex="1" parent="1">
          <mxGeometry x="380" y="120" width="120" height="80" as="geometry" />
        </mxCell>
        <mxCell id="kRFx1FYYjwCrAYGBNGrn-26" value="" style="endArrow=none;html=1;rounded=0;exitX=1;exitY=0.5;exitDx=0;exitDy=0;" edge="1" parent="1" source="kRFx1FYYjwCrAYGBNGrn-17" target="kRFx1FYYjwCrAYGBNGrn-27">
          <mxGeometry width="50" height="50" relative="1" as="geometry">
            <mxPoint x="390" y="400" as="sourcePoint" />
            <mxPoint x="280" y="320" as="targetPoint" />
          </mxGeometry>
        </mxCell>
        <mxCell id="kRFx1FYYjwCrAYGBNGrn-27" value="выбор блюда" style="ellipse;whiteSpace=wrap;html=1;" vertex="1" parent="1">
          <mxGeometry x="260" y="210" width="120" height="80" as="geometry" />
        </mxCell>
        <mxCell id="kRFx1FYYjwCrAYGBNGrn-30" value="оформление заказа" style="ellipse;whiteSpace=wrap;html=1;" vertex="1" parent="1">
          <mxGeometry x="399" y="310" width="120" height="80" as="geometry" />
        </mxCell>
        <mxCell id="kRFx1FYYjwCrAYGBNGrn-31" value="" style="endArrow=none;html=1;rounded=0;entryX=0.5;entryY=0;entryDx=0;entryDy=0;" edge="1" parent="1" source="kRFx1FYYjwCrAYGBNGrn-27" target="kRFx1FYYjwCrAYGBNGrn-30">
          <mxGeometry width="50" height="50" relative="1" as="geometry">
            <mxPoint x="470" y="390" as="sourcePoint" />
            <mxPoint x="520" y="340" as="targetPoint" />
          </mxGeometry>
        </mxCell>
        <mxCell id="kRFx1FYYjwCrAYGBNGrn-33" value="обработка заказа" style="ellipse;whiteSpace=wrap;html=1;" vertex="1" parent="1">
          <mxGeometry x="693.5" y="370" width="120" height="80" as="geometry" />
        </mxCell>
        <mxCell id="kRFx1FYYjwCrAYGBNGrn-35" value="" style="endArrow=none;html=1;rounded=0;exitX=0.5;exitY=0;exitDx=0;exitDy=0;" edge="1" parent="1" source="kRFx1FYYjwCrAYGBNGrn-33" target="kRFx1FYYjwCrAYGBNGrn-18">
          <mxGeometry width="50" height="50" relative="1" as="geometry">
            <mxPoint x="470" y="390" as="sourcePoint" />
            <mxPoint x="520" y="404" as="targetPoint" />
          </mxGeometry>
        </mxCell>
        <mxCell id="kRFx1FYYjwCrAYGBNGrn-36" value="" style="endArrow=none;html=1;rounded=0;entryX=0.5;entryY=1;entryDx=0;entryDy=0;exitX=0.5;exitY=0;exitDx=0;exitDy=0;" edge="1" parent="1" source="kRFx1FYYjwCrAYGBNGrn-37" target="kRFx1FYYjwCrAYGBNGrn-33">
          <mxGeometry width="50" height="50" relative="1" as="geometry">
            <mxPoint x="640" y="360" as="sourcePoint" />
            <mxPoint x="520" y="340" as="targetPoint" />
          </mxGeometry>
        </mxCell>
        <mxCell id="kRFx1FYYjwCrAYGBNGrn-37" value="подтверждение заказа" style="ellipse;whiteSpace=wrap;html=1;" vertex="1" parent="1">
          <mxGeometry x="693.5" y="545" width="120" height="80" as="geometry" />
        </mxCell>
        <mxCell id="kRFx1FYYjwCrAYGBNGrn-39" value="отправка заказа на обработку" style="ellipse;whiteSpace=wrap;html=1;" vertex="1" parent="1">
          <mxGeometry x="539.9999999999998" y="480" width="120" height="80" as="geometry" />
        </mxCell>
        <mxCell id="kRFx1FYYjwCrAYGBNGrn-40" value="" style="endArrow=none;html=1;rounded=0;" edge="1" parent="1" source="kRFx1FYYjwCrAYGBNGrn-39" target="kRFx1FYYjwCrAYGBNGrn-33">
          <mxGeometry width="50" height="50" relative="1" as="geometry">
            <mxPoint x="470" y="390" as="sourcePoint" />
            <mxPoint x="520" y="340" as="targetPoint" />
          </mxGeometry>
        </mxCell>
        <mxCell id="kRFx1FYYjwCrAYGBNGrn-41" value="" style="endArrow=none;html=1;rounded=0;" edge="1" parent="1" source="kRFx1FYYjwCrAYGBNGrn-30" target="kRFx1FYYjwCrAYGBNGrn-42">
          <mxGeometry width="50" height="50" relative="1" as="geometry">
            <mxPoint x="470" y="390" as="sourcePoint" />
            <mxPoint x="310" y="380" as="targetPoint" />
          </mxGeometry>
        </mxCell>
        <mxCell id="kRFx1FYYjwCrAYGBNGrn-42" value="оплата заказа" style="ellipse;whiteSpace=wrap;html=1;" vertex="1" parent="1">
          <mxGeometry x="200" y="410" width="120" height="80" as="geometry" />
        </mxCell>
        <mxCell id="kRFx1FYYjwCrAYGBNGrn-43" value="" style="endArrow=none;html=1;rounded=0;" edge="1" parent="1" source="kRFx1FYYjwCrAYGBNGrn-42" target="kRFx1FYYjwCrAYGBNGrn-44">
          <mxGeometry width="50" height="50" relative="1" as="geometry">
            <mxPoint x="470" y="390" as="sourcePoint" />
            <mxPoint x="470" y="340" as="targetPoint" />
          </mxGeometry>
        </mxCell>
        <mxCell id="kRFx1FYYjwCrAYGBNGrn-44" value="подтверждение оплаты" style="ellipse;whiteSpace=wrap;html=1;" vertex="1" parent="1">
          <mxGeometry x="289.9999999999998" y="520" width="120" height="80" as="geometry" />
        </mxCell>
        <mxCell id="kRFx1FYYjwCrAYGBNGrn-45" value="Доставка" style="shape=umlActor;verticalLabelPosition=bottom;verticalAlign=top;html=1;outlineConnect=0;" vertex="1" parent="1">
          <mxGeometry x="360" y="720" width="39" height="80" as="geometry" />
        </mxCell>
        <mxCell id="kRFx1FYYjwCrAYGBNGrn-48" value="" style="endArrow=none;html=1;rounded=0;entryX=0.054;entryY=0.79;entryDx=0;entryDy=0;entryPerimeter=0;exitX=0.951;exitY=0.284;exitDx=0;exitDy=0;exitPerimeter=0;" edge="1" parent="1" source="kRFx1FYYjwCrAYGBNGrn-49" target="kRFx1FYYjwCrAYGBNGrn-37">
          <mxGeometry width="50" height="50" relative="1" as="geometry">
            <mxPoint x="620" y="660" as="sourcePoint" />
            <mxPoint x="360" y="590" as="targetPoint" />
          </mxGeometry>
        </mxCell>
        <mxCell id="kRFx1FYYjwCrAYGBNGrn-49" value="отправка заказа на доставку" style="ellipse;whiteSpace=wrap;html=1;" vertex="1" parent="1">
          <mxGeometry x="540" y="650" width="120" height="80" as="geometry" />
        </mxCell>
        <mxCell id="kRFx1FYYjwCrAYGBNGrn-50" value="" style="endArrow=none;html=1;rounded=0;exitX=1;exitY=0.3333333333333333;exitDx=0;exitDy=0;exitPerimeter=0;entryX=0.028;entryY=0.667;entryDx=0;entryDy=0;entryPerimeter=0;" edge="1" parent="1" source="kRFx1FYYjwCrAYGBNGrn-45" target="kRFx1FYYjwCrAYGBNGrn-49">
          <mxGeometry width="50" height="50" relative="1" as="geometry">
            <mxPoint x="310" y="640" as="sourcePoint" />
            <mxPoint x="360" y="590" as="targetPoint" />
          </mxGeometry>
        </mxCell>
        <mxCell id="kRFx1FYYjwCrAYGBNGrn-51" value="" style="endArrow=none;html=1;rounded=0;exitX=0;exitY=0;exitDx=0;exitDy=0;" edge="1" parent="1" source="kRFx1FYYjwCrAYGBNGrn-52" target="kRFx1FYYjwCrAYGBNGrn-2">
          <mxGeometry width="50" height="50" relative="1" as="geometry">
            <mxPoint x="40" y="600" as="sourcePoint" />
            <mxPoint x="420" y="440" as="targetPoint" />
          </mxGeometry>
        </mxCell>
        <mxCell id="kRFx1FYYjwCrAYGBNGrn-52" value="отслеживать статус доставки" style="ellipse;whiteSpace=wrap;html=1;" vertex="1" parent="1">
          <mxGeometry x="50" y="360" width="120" height="80" as="geometry" />
        </mxCell>
        <mxCell id="kRFx1FYYjwCrAYGBNGrn-53" value="" style="endArrow=none;html=1;rounded=0;entryX=0;entryY=0.3333333333333333;entryDx=0;entryDy=0;entryPerimeter=0;exitX=1;exitY=0.5;exitDx=0;exitDy=0;" edge="1" parent="1" source="kRFx1FYYjwCrAYGBNGrn-54" target="kRFx1FYYjwCrAYGBNGrn-45">
          <mxGeometry width="50" height="50" relative="1" as="geometry">
            <mxPoint x="220" y="730" as="sourcePoint" />
            <mxPoint x="290" y="490" as="targetPoint" />
          </mxGeometry>
        </mxCell>
        <mxCell id="kRFx1FYYjwCrAYGBNGrn-54" value="выполнение доставки" style="ellipse;whiteSpace=wrap;html=1;" vertex="1" parent="1">
          <mxGeometry x="170" y="700" width="120" height="80" as="geometry" />
        </mxCell>
        <mxCell id="kRFx1FYYjwCrAYGBNGrn-58" value="" style="endArrow=none;html=1;rounded=0;exitX=0;exitY=0;exitDx=0;exitDy=0;" edge="1" parent="1" source="kRFx1FYYjwCrAYGBNGrn-54" target="kRFx1FYYjwCrAYGBNGrn-59">
          <mxGeometry width="50" height="50" relative="1" as="geometry">
            <mxPoint x="240" y="540" as="sourcePoint" />
            <mxPoint x="-50" y="560" as="targetPoint" />
          </mxGeometry>
        </mxCell>
        <mxCell id="kRFx1FYYjwCrAYGBNGrn-59" value="передача заказа клиенту" style="ellipse;whiteSpace=wrap;html=1;" vertex="1" parent="1">
          <mxGeometry x="-110" y="520" width="120" height="80" as="geometry" />
        </mxCell>
        <mxCell id="kRFx1FYYjwCrAYGBNGrn-60" value="" style="endArrow=none;html=1;rounded=0;entryX=0;entryY=1;entryDx=0;entryDy=0;entryPerimeter=0;exitX=0.5;exitY=0;exitDx=0;exitDy=0;" edge="1" parent="1" source="kRFx1FYYjwCrAYGBNGrn-61" target="kRFx1FYYjwCrAYGBNGrn-2">
          <mxGeometry width="50" height="50" relative="1" as="geometry">
            <mxPoint x="-50" y="400" as="sourcePoint" />
            <mxPoint x="290" y="490" as="targetPoint" />
          </mxGeometry>
        </mxCell>
        <mxCell id="kRFx1FYYjwCrAYGBNGrn-61" value="получение заказа" style="ellipse;whiteSpace=wrap;html=1;" vertex="1" parent="1">
          <mxGeometry x="-110" y="390" width="120" height="80" as="geometry" />
        </mxCell>
        <mxCell id="kRFx1FYYjwCrAYGBNGrn-62" value="" style="endArrow=none;html=1;rounded=0;exitX=0.5;exitY=0;exitDx=0;exitDy=0;" edge="1" parent="1" source="kRFx1FYYjwCrAYGBNGrn-59" target="kRFx1FYYjwCrAYGBNGrn-61">
          <mxGeometry width="50" height="50" relative="1" as="geometry">
            <mxPoint x="240" y="540" as="sourcePoint" />
            <mxPoint x="290" y="490" as="targetPoint" />
          </mxGeometry>
        </mxCell>
        <mxCell id="kRFx1FYYjwCrAYGBNGrn-63" value="" style="endArrow=none;html=1;rounded=0;entryX=0;entryY=0.5;entryDx=0;entryDy=0;exitX=1;exitY=0.5;exitDx=0;exitDy=0;" edge="1" parent="1" source="kRFx1FYYjwCrAYGBNGrn-44" target="kRFx1FYYjwCrAYGBNGrn-39">
          <mxGeometry width="50" height="50" relative="1" as="geometry">
            <mxPoint x="240" y="540" as="sourcePoint" />
            <mxPoint x="290" y="490" as="targetPoint" />
          </mxGeometry>
        </mxCell>
        <mxCell id="kRFx1FYYjwCrAYGBNGrn-64" value="" style="endArrow=none;html=1;rounded=0;exitX=0.5;exitY=0.5;exitDx=0;exitDy=0;exitPerimeter=0;" edge="1" parent="1" source="kRFx1FYYjwCrAYGBNGrn-2" target="kRFx1FYYjwCrAYGBNGrn-65">
          <mxGeometry width="50" height="50" relative="1" as="geometry">
            <mxPoint x="280" y="300" as="sourcePoint" />
            <mxPoint x="-90" y="240" as="targetPoint" />
          </mxGeometry>
        </mxCell>
        <mxCell id="kRFx1FYYjwCrAYGBNGrn-65" value="оставление отзыва" style="ellipse;whiteSpace=wrap;html=1;" vertex="1" parent="1">
          <mxGeometry x="-149.99999999999977" y="200" width="120" height="80" as="geometry" />
        </mxCell>
      </root>
    </mxGraphModel>
  </diagram>
</mxfile>
